# xmcd
#
# Track frame offsets: 
#        150
#        16235
#        34354
#        48676
#        64154
#        75415
#        92302
#        104381
#        120032
#        134768
#        150638
#        169073
#        188344
#        199635
#        212970
#
# Disc length: 3100 seconds
#
# Revision: 0
# Processed by: cddbd v1.5.2PL0 Copyright (c) Steve Scherf et al.
# Submitted via: ExactAudioCopyFreeDBPlugin 1.0
#
DISCID=be0c1a0f
DTITLE=Aaron Burton - How Can I Be Blues
DYEAR=2008
DGENRE=Blues
TTITLE0=Talkin' In My Sleepr
TTITLE1=High Class Woman
TTITLE2=I.R.S. Blues
TTITLE3=Daddy's Little Girl
TTITLE4=Plenty Of Fish
TTITLE5=Ain't No Heaven
TTITLE6=Case Of Beer
TTITLE7=Tell Me
TTITLE8=Hey Pretty Babe
TTITLE9=One Dime Bag
TTITLE10=Highway Blues
TTITLE11=Y2K Blues
TTITLE12=San Marcos
TTITLE13=Country Blues
TTITLE14=My Friend Dooley
EXTD=
EXTT0=
EXTT1=
EXTT2=
EXTT3=
EXTT4=
EXTT5=
EXTT6=
EXTT7=
EXTT8=
EXTT9=
EXTT10=
EXTT11=
EXTT12=
EXTT13=
EXTT14=
PLAYORDER=
